<svg width="1404" height="600" viewBox="0 0 1404 600" fill="none" xmlns="http://www.w3.org/2000/svg">
<path id="Combined Shape" fill-rule="evenodd" clip-rule="evenodd" d="M1372.97 -575.148L643.488 -869.876L348.144 -138.874L984.903 118.393C1036.11 139.082 1094.39 114.342 1115.08 63.1352L1372.97 -575.148ZM366.926 867.888C165.487 786.502 68.473 556.463 149.86 355.024C231.247 153.584 460.831 55.5 662.27 136.887C863.71 218.274 960.724 448.312 879.337 649.752C797.95 851.191 568.366 949.275 366.926 867.888ZM2224.34 -231.172L1494.86 -525.899L1236.98 112.384C1216.29 163.591 1241.03 221.874 1292.23 242.563L1928.99 499.83L2224.34 -231.172ZM852.035 1065.15L1581.51 1359.88L1876.86 628.874L1240.1 371.607C1188.89 350.918 1130.61 375.658 1109.92 426.865L852.035 1065.15Z" fill="url(#paint0_linear)"/>
<defs>
<linearGradient id="paint0_linear" x1="-468.349" y1="-393.704" x2="483.975" y2="1829.92" gradientUnits="userSpaceOnUse">
<stop stop-color="#FF8F71"/>
<stop offset="1" stop-color="#FF3E55"/>
</linearGradient>
</defs>
</svg>
